<?xml version="1.0" encoding="utf-8"?>
<!-- Generator: Adobe Illustrator 24.3.0, SVG Export Plug-In . SVG Version: 6.00 Build 0)  -->
<svg version="1.1" id="Layer_1" xmlns="http://www.w3.org/2000/svg" xmlns:xlink="http://www.w3.org/1999/xlink" x="0px" y="0px"
	 viewBox="0 0 1229.8 330.2" style="enable-background:new 0 0 1229.8 330.2;" xml:space="preserve">
<style type="text/css">
	.st0{fill:#39298C;}
</style>
<g>
	<g>
		<path class="st0" d="M518.4,16.6c-0.7,0-1.1,0.4-1.1,1.1v98.9c0,1.5-1.5,2.8-3.2,2.8c-0.8,0-1.5-0.3-2-0.8
			c-3.7-3.7-23.9-22.2-57.8-22.2c-58.8,0-98.3,44.4-98.3,110.6c0,67.2,38.6,110.6,98.3,110.6c21.5,0,46.1-11.3,56.5-21.8
			c1-1,2.1-1.5,3.3-1.5c1.4,0,2.5,0.8,3.1,2.3l4.3,15.4c0.3,1.1,0.5,1.4,2,1.4h36.1c0.7,0,1.1-0.4,1.1-1.1V17.6
			c0-0.7-0.4-1.1-1.1-1.1H518.4z M460.7,278.4c-37.6,0-60.9-27.4-60.9-71.5c0-43.8,23.3-71.1,60.9-71.1c36,0,56.6,25.9,56.6,71.1
			C517.3,251,495.6,278.4,460.7,278.4z"/>
	</g>
	<path class="st0" d="M612.7,96.3c-0.7,0-1.1,0.4-1.1,1.1v214.8c0,0.7,0.4,1.1,1.1,1.1h42c0.7,0,1.1-0.4,1.1-1.1V97.4
		c0-0.7-0.4-1.1-1.1-1.1H612.7z"/>
	<path class="st0" d="M606.6,23.8C606.5,23.8,606.5,23.8,606.6,23.8l0,44.1h43.3V23.8c0,0,0,0,0,0H606.6z"/>
	<path class="st0" d="M787.4,96.3c-62.3,0-102.5,43.4-102.5,110.6c0,66.1,41.2,110.6,102.5,110.6c49,0,85.5-24.9,95.3-65l0-0.2
		c-0.1-0.2-0.7-0.6-1.1-0.6h-43.7c-1.1,0-1.6,0.4-2,1.4c-8.7,16.9-25,25.3-48.5,25.3c-32.3,0-56.6-22.5-56.6-52.4
		c0-1.8,1.3-3.2,3.2-3.2h153.2c0.5,0,0.7-0.1,1.1-1.4c0.8-3.8,1.6-8.3,1.6-14.5C889.9,139.7,849.6,96.3,787.4,96.3z M842.6,188
		c-0.3,0-111.7,0-111.7,0c-2.3-15.9,13.8-52.2,56.4-52.2C824.9,135.8,844.4,163.4,842.6,188z"/>
	<g>
		<path class="st0" d="M1146.2,96.3c-22.4,0-44.6,9.4-59.5,25.1c-1.1,1.1-2.2,1.3-2.9,1.3c-1,0-2.1-0.5-2.9-1.3
			c-16.3-18.1-32.4-25.2-57.4-25.2c-20.2,0-40.9,11.6-50.1,22.5c-1,1.1-2.2,1.6-3.3,1.6c-1.4,0-2.5-0.8-3.1-2.3l-4.3-15.8
			c-0.4-1.5-1-1.8-2-1.8h-36.1c-0.7,0-1.1,0.4-1.1,1.1v210.5c0,0.7,0.4,1.1,1.1,1.1h41.2c0.7,0,1.1-0.4,1.1-1.1V195
			c0-38.2,15.6-59.2,43.9-59.2c29.1,0,43.9,19.9,43.9,59.2v117.1c0,0.8,0.3,1.1,1.1,1.1h41.6c0.3,0,1.1-0.4,1.1-1.1V195
			c0-25.4,4.5-59.2,43.5-59.2c29.4,0,44.3,19.9,44.3,59.2v117.1c0,0.7,0.4,1.1,1.1,1.1h41.2c0.7,0,1.1-0.4,1.1-1.1V193.8
			C1229.6,130,1200.8,96.3,1146.2,96.3z"/>
	</g>
	<path class="st0" d="M291.4,282.1c7.8-8.7,14.8-18.7,21.5-30.4l-36.5-18.2c-5.9,9.6-12.3,17.7-19.1,24c-10.2,9.4-21,14.9-32,16.3
		c-21.2,2.7-36.1-3.9-57.8-17.8c-22.8-14.6-48.5-31.1-85.2-26.5c-22.2,2.8-42.6,14.5-60.5,34.5c-7.8,8.7-14.8,18.7-21.5,30.4
		l36.5,18.2c5.9-9.6,12.3-17.7,19.1-24c10-9.3,20.8-14.7,32-16.2c3.2-0.4,6.3-0.6,9.2-0.6c16.8,0,30.2,6.5,48.5,18.2
		c21.3,13.6,47.7,30.6,85.2,25.8C253.5,313.1,273.9,301.7,291.4,282.1z M291.4,173.5c7.8-8.7,14.8-18.7,21.5-30.4L276.5,125
		c-5.9,9.6-12.3,17.7-19.1,24c-10.2,9.4-21,14.9-32,16.3c-21.2,2.7-36.1-3.9-57.8-17.8c-22.8-14.6-48.5-31.1-85.2-26.5
		c-22.2,2.8-42.6,14.5-60.5,34.5c-7.8,8.7-14.8,18.7-21.5,30.4l36.5,18.2c5.9-9.6,12.3-17.7,19.1-24c10-9.3,20.8-14.7,32-16.2
		c3.2-0.4,6.3-0.6,9.2-0.6c16.8,0,30.2,6.5,48.5,18.2c21.3,13.6,47.7,30.6,85.2,25.8C253.5,204.6,273.9,193.2,291.4,173.5z
		 M291.4,65c7.8-8.7,14.8-18.7,21.5-30.4l-36.5-18.2c-5.9,9.6-12.3,17.7-19.1,24c-10.2,9.4-21,14.9-32,16.3
		c-21.2,2.7-36.1-3.9-57.8-17.8c-22.8-14.6-48.6-31.1-85.2-26.5C60.3,15.3,39.9,26.9,22,47C14.2,55.8,7.1,65.7,0.4,77.4l36.5,18.2
		c5.9-9.6,12.3-17.7,19.1-24c10-9.3,20.8-14.7,32-16.2c3.2-0.4,6.3-0.6,9.2-0.6c16.8,0,30.2,6.5,48.5,18.2
		c21.3,13.6,47.7,30.6,85.2,25.8C253.5,96,273.9,84.6,291.4,65z"/>
</g>
</svg>
